HIERARCHY
ROOT Hips
{
 OFFSET 0.000000 0.000000 0.000000
 CHANNELS 6 Xposition Yposition Zposition Yrotation Xrotation Zrotation
 JOINT Chest
 {
  OFFSET 0.000000 10.483295 0.018402
  CHANNELS 3 Yrotation Xrotation Zrotation
  JOINT Chest2
  {
   OFFSET 0.000000 12.196575 -0.033437
   CHANNELS 3 Yrotation Xrotation Zrotation
   JOINT Chest3
   {
    OFFSET 0.000000 11.021500 0.000000
    CHANNELS 3 Yrotation Xrotation Zrotation
    JOINT Chest4
    {
     OFFSET 0.000000 11.021400 0.000000
     CHANNELS 3 Yrotation Xrotation Zrotation
     JOINT Neck
     {
      OFFSET 0.000000 15.252000 0.000000
      CHANNELS 3 Yrotation Xrotation Zrotation
      JOINT Head
      {
       OFFSET 0.000000 10.245098 -0.079700
       CHANNELS 3 Yrotation Xrotation Zrotation
       End Site
       {
        OFFSET 0.000000 19.813991 -0.041600
       }
      }
     }
     JOINT RightCollar
     {
      OFFSET -3.058700 8.489100 0.000000
      CHANNELS 3 Yrotation Xrotation Zrotation
      JOINT RightShoulder
      {
       OFFSET -13.730400 0.000000 0.000000
       CHANNELS 3 Yrotation Xrotation Zrotation
       JOINT RightElbow
       {
        OFFSET -30.364119 -0.000000 0.000000
        CHANNELS 3 Yrotation Xrotation Zrotation
        JOINT RightWrist
        {
         OFFSET -24.952755 0.000000 0.004743
         CHANNELS 3 Yrotation Xrotation Zrotation
         End Site
         {
          OFFSET -18.738600 0.000000 0.000000
         }
        }
       }
      }
     }
     JOINT LeftCollar
     {
      OFFSET 3.058700 8.489100 0.000000
      CHANNELS 3 Yrotation Xrotation Zrotation
      JOINT LeftShoulder
      {
       OFFSET 13.730400 0.000000 0.000000
       CHANNELS 3 Yrotation Xrotation Zrotation
       JOINT LeftElbow
       {
        OFFSET 30.364119 -0.000000 0.000000
        CHANNELS 3 Yrotation Xrotation Zrotation
        JOINT LeftWrist
        {
         OFFSET 24.952755 -0.000000 0.004743
         CHANNELS 3 Yrotation Xrotation Zrotation
         End Site
         {
          OFFSET 18.738600 -0.000000 -0.000000
         }
        }
       }
      }
     }
    }
   }
  }
 }
 JOINT RightHip
 {
  OFFSET -8.366805 -0.090331 -0.009218
  CHANNELS 3 Yrotation Xrotation Zrotation
  JOINT RightKnee
  {
   OFFSET 0.000000 -46.515684 0.008890
   CHANNELS 3 Yrotation Xrotation Zrotation
   JOINT RightAnkle
   {
    OFFSET 0.000000 -42.864747 0.048728
    CHANNELS 3 Yrotation Xrotation Zrotation
    JOINT RightToe
    {
     OFFSET 0.000000 -10.045100 15.254100
     CHANNELS 3 Yrotation Xrotation Zrotation
     End Site
     {
      OFFSET 0.000000 -1.537700 6.138800
     }
    }
   }
  }
 }
 JOINT LeftHip
 {
  OFFSET 8.366805 -0.090331 -0.009218
  CHANNELS 3 Yrotation Xrotation Zrotation
  JOINT LeftKnee
  {
   OFFSET 0.000000 -46.515684 0.008890
   CHANNELS 3 Yrotation Xrotation Zrotation
   JOINT LeftAnkle
   {
    OFFSET 0.000000 -42.864747 0.048728
    CHANNELS 3 Yrotation Xrotation Zrotation
    JOINT LeftToe
    {
     OFFSET 0.000000 -10.045100 15.254100
     CHANNELS 3 Yrotation Xrotation Zrotation
     End Site
     {
      OFFSET 0.000000 -1.537700 6.138800
     }
    }
   }
  }
 }
}
MOTION
Frames: 11
Frame Time: 0.004167
185.241559 98.153731 -932.646495 -85.436793 -9.856798 -3.941912 6.689258 10.068694 -0.300927 3.014286 4.480468 -0.329147 3.014283 4.480573 -0.329173 2.261889 3.358818 -0.268919 3.797071 16.823391 -5.284221 8.861285 -4.369378 -11.100469 -5.813388 -3.589828 4.688140 8.873092 6.338187 73.862145 35.668672 9.702198 13.273278 -10.351435 12.128028 -27.711179 -3.769136 -3.365835 -4.381557 1.749825 2.790756 -78.798585 -18.698769 4.803856 -2.159343 6.629975 22.427781 18.005210 -2.019523 -1.490050 -2.321830 -7.806799 55.661363 -18.851263 -3.340708 25.518617 6.892779 0.749738 -0.583859 1.402356 24.861288 -0.615516 -9.599619 5.089401 9.250842 4.655603 20.122675 -7.346430 12.130550 -0.016801 -0.453629 0.188867
185.045609 98.169102 -932.541568 -84.867774 -9.885866 -3.899496 6.661493 10.072389 -0.326097 2.996030 4.485953 -0.325939 2.996086 4.485912 -0.325961 2.248252 3.362942 -0.266290 3.802873 16.835658 -5.283947 8.870527 -4.346178 -11.100560 -5.808110 -3.561057 4.670739 8.968597 6.415525 73.795766 35.620980 9.811310 13.332327 -10.277353 12.207875 -27.578115 -3.745440 -3.409918 -4.414869 1.749780 2.693173 -78.744462 -19.223457 4.607821 -2.396620 6.413668 22.287934 18.225504 -1.804347 -1.790879 -2.219300 -7.724590 56.202188 -19.076717 -2.476989 25.709543 7.703470 0.462463 -0.430042 0.925171 24.424515 -0.408872 -9.652498 5.165070 9.297964 4.595348 19.818548 -7.374703 12.034368 0.009042 -0.484403 0.236595
184.849196 98.182936 -932.436267 -84.292123 -9.912176 -3.859505 6.636418 10.076171 -0.350456 2.978485 4.491009 -0.322641 2.978376 4.491054 -0.322535 2.235001 3.366818 -0.263784 3.811378 16.845982 -5.278796 8.883220 -4.326651 -11.093064 -5.802583 -3.534995 4.651646 9.056430 6.493110 73.741421 35.565904 9.948658 13.384886 -10.210525 12.294217 -27.434692 -3.722892 -3.457641 -4.445720 1.748025 2.605971 -78.693036 -19.767255 4.387134 -2.643171 6.170363 22.135164 18.434974 -1.612641 -2.088065 -2.122401 -7.614038 56.722021 -19.290416 -1.600877 25.746554 8.526737 0.236098 -0.294539 0.553791 23.994570 -0.194570 -9.704473 5.241952 9.329826 4.535865 19.580675 -7.425728 11.933547 0.028112 -0.505000 0.273990
184.651293 98.195236 -932.331573 -83.709124 -9.936907 -3.828037 6.614137 10.080292 -0.365842 2.961090 4.495614 -0.319764 2.961133 4.495612 -0.319722 2.222076 3.370284 -0.261543 3.822335 16.854608 -5.269263 8.899194 -4.310378 -11.078320 -5.796350 -3.512145 4.629966 9.136900 6.571971 73.700830 35.500703 10.108347 13.428717 -10.150310 12.386860 -27.282374 -3.701881 -3.508109 -4.474157 1.740675 2.529211 -78.644971 -20.330467 4.138097 -2.895298 5.911355 21.973435 18.632444 -1.439924 -2.380662 -2.022411 -7.443859 57.221567 -19.457009 -0.761707 25.655185 9.320193 0.073104 -0.174521 0.282046 23.571608 0.024730 -9.750541 5.314672 9.348000 4.476307 19.421955 -7.500586 11.827272 0.043066 -0.516171 0.303232
184.451809 98.206342 -932.232153 -83.116797 -9.960513 -3.817938 6.597738 10.079892 -0.355483 2.944015 4.500754 -0.316496 2.943970 4.500792 -0.316566 2.209200 3.374070 -0.259042 3.835180 16.860652 -5.255135 8.917318 -4.299433 -11.055846 -5.790493 -3.499086 4.607930 9.204180 6.653379 73.674127 35.427717 10.289406 13.467393 -10.095730 12.485680 -27.118046 -3.684673 -3.562544 -4.499836 1.730732 2.460383 -78.598205 -20.915807 3.865168 -3.152865 5.638874 21.803883 18.818861 -1.271563 -2.672817 -1.894854 -7.234339 57.692129 -19.575245 0.001328 25.479814 10.044628 -0.020981 -0.077018 0.103384 23.158950 0.244019 -9.776948 5.372495 9.353369 4.418620 19.245718 -7.581294 11.725156 0.058983 -0.512528 0.325816
184.248156 98.216197 -932.128180 -82.514282 -9.988738 -3.799143 6.579206 10.091422 -0.361034 2.928002 4.505738 -0.313798 2.927952 4.505759 -0.313953 2.197222 3.377944 -0.256934 3.848963 16.864348 -5.236226 8.935851 -4.293047 -11.025178 -5.785002 -3.492696 4.588265 9.251002 6.738600 73.656522 35.346242 10.490328 13.502736 -10.055142 12.586266 -26.956528 -3.671806 -3.619904 -4.518260 1.718273 2.398390 -78.555866 -21.514565 3.575488 -3.417062 5.362857 21.632135 18.984106 -1.110897 -2.952434 -1.789444 -7.028447 58.137569 -19.688998 0.722811 25.211039 10.787213 -0.102298 0.017823 -0.036410 22.759188 0.483511 -9.814359 5.408890 9.345791 4.355317 18.910997 -7.627653 11.657021 0.070612 -0.510319 0.343275
184.044037 98.224451 -932.020146 -81.900969 -10.013713 -3.778496 6.557943 10.105448 -0.371425 2.913235 4.510948 -0.311701 2.913418 4.510986 -0.311682 2.186156 3.381879 -0.255220 3.863052 16.864597 -5.213218 8.954005 -4.293549 -10.987495 -5.779545 -3.495922 4.572454 9.273348 6.825822 73.645896 35.256706 10.708777 13.539460 -10.024222 12.686724 -26.795089 -3.663964 -3.681004 -4.531405 1.702155 2.341700 -78.515262 -22.127009 3.270273 -3.687042 5.082759 21.455918 19.130971 -0.938752 -3.228207 -1.695721 -6.865811 58.549462 -19.814903 1.423610 24.849097 11.425512 -0.128170 0.115952 -0.089992 22.364435 0.731720 -9.855072 5.419478 9.326774 4.285146 18.664485 -7.690019 11.590248 0.075505 -0.505749 0.352452
183.842752 98.231001 -931.906126 -81.287836 -10.027983 -3.745367 6.545041 10.113293 -0.397620 2.900046 4.516464 -0.309709 2.900119 4.516577 -0.309696 2.176258 3.386004 -0.253529 3.876418 16.862125 -5.185497 8.969684 -4.299788 -10.940897 -5.778730 -3.506807 4.561139 9.277237 6.915593 73.642876 35.159508 10.937104 13.575404 -10.003865 12.784253 -26.638100 -3.663453 -3.744800 -4.538832 1.683299 2.289132 -78.475213 -22.752265 2.951187 -3.962040 4.805987 21.278323 19.257666 -0.735293 -3.512540 -1.623338 -6.775619 58.928936 -19.971156 2.078197 24.430398 12.026465 -0.136929 0.214000 -0.107200 21.985435 0.981211 -9.908426 5.395903 9.299483 4.205884 18.670159 -7.770127 11.496626 0.083904 -0.527663 0.360015
183.639982 98.237057 -931.798934 -80.657208 -10.042120 -3.746509 6.529324 10.116032 -0.387139 2.887993 4.521462 -0.307581 2.888044 4.521421 -0.307694 2.167122 3.389697 -0.252045 3.889949 16.858595 -5.153298 8.984072 -4.308708 -10.886478 -5.778746 -3.521442 4.551879 9.263094 7.007047 73.648240 35.054879 11.169450 13.612887 -9.990975 12.878481 -26.482740 -3.667268 -3.805246 -4.543427 1.663969 2.238700 -78.434960 -23.391036 2.622612 -4.240509 4.531238 21.099584 19.367153 -0.536347 -3.795341 -1.508883 -6.743597 59.264989 -20.156072 2.657924 23.986499 12.448027 -0.063735 0.297708 -0.029381 21.609089 1.227792 -9.933876 5.333132 9.259598 4.125467 18.603528 -7.860341 11.426451 0.086728 -0.513797 0.359467
183.435786 98.241937 -931.684606 -80.017031 -10.060436 -3.729416 6.508960 10.129568 -0.401768 2.876481 4.524948 -0.305861 2.876516 4.524887 -0.305920 2.158490 3.392382 -0.250553 3.903617 16.854807 -5.117575 8.997651 -4.318256 -10.825903 -5.778751 -3.535627 4.544467 9.232257 7.103337 73.655704 34.941543 11.400798 13.651438 -9.991630 12.966099 -26.339535 -3.672424 -3.861143 -4.545193 1.641029 2.189802 -78.395886 -24.033539 2.287795 -4.525134 4.271728 20.925426 19.456255 -0.324927 -4.061505 -1.426685 -6.761828 59.571920 -20.366807 3.206424 23.467077 12.775386 0.027421 0.400113 0.092359 21.245595 1.492053 -9.979213 5.238529 9.213330 4.039739 18.339059 -7.897538 11.395042 0.087629 -0.508973 0.358682
183.233781 98.245558 -931.567926 -79.364179 -10.073311 -3.722301 6.485096 10.138377 -0.409208 2.865134 4.527741 -0.303559 2.865038 4.527683 -0.303714 2.150005 3.394403 -0.248878 3.916947 16.850473 -5.079092 9.009737 -4.329314 -10.759892 -5.778144 -3.550295 4.537427 9.189233 7.202427 73.665990 34.819218 11.624650 13.690207 -10.000275 13.047301 -26.205376 -3.679959 -3.913635 -4.547256 1.617872 2.141218 -78.356169 -24.680242 1.947568 -4.814394 4.025855 20.754022 19.526420 -0.089043 -4.325413 -1.337832 -6.829062 59.844502 -20.582011 3.663616 22.939668 12.994540 0.149568 0.493152 0.254011 20.896075 1.758376 -10.021861 5.115531 9.154728 3.957104 18.142739 -7.943764 11.364032 0.078767 -0.501810 0.351236
